<?xml version="1.0" standalone="no"?>
<!DOCTYPE svg PUBLIC "-//W3C//DTD SVG 20010904//EN"
 "http://www.w3.org/TR/2001/REC-SVG-20010904/DTD/svg10.dtd">
<svg version="1.0" xmlns="http://www.w3.org/2000/svg"
 width="512.000000pt" height="512.000000pt" viewBox="0 0 512.000000 512.000000"
 preserveAspectRatio="xMidYMid meet">
<metadata>
Created by potrace 1.16, written by Peter Selinger 2001-2019
</metadata>
<g transform="translate(0.000000,512.000000) scale(0.100000,-0.100000)"
fill="#000000" stroke="none">
<path d="M3291 4422 c-13 -37 -35 -88 -47 -114 -29 -58 -30 -78 -4 -78 20 0
19 -3 -10 -44 -16 -25 -55 -67 -85 -93 -30 -26 -55 -51 -55 -55 0 -5 23 -8 50
-8 28 0 50 -3 50 -7 0 -4 -19 -26 -42 -50 -23 -23 -39 -46 -35 -49 4 -4 34 2
67 14 33 11 60 17 60 13 0 -11 -83 -88 -118 -109 -33 -19 -33 -20 -9 -26 13
-3 39 -1 58 4 19 6 35 10 37 10 2 0 -30 -38 -72 -83 -42 -46 -73 -87 -69 -90
3 -4 4 -7 0 -7 -3 0 -22 28 -43 61 -32 54 -38 59 -47 43 -5 -11 -11 -21 -13
-23 -2 -2 -25 16 -52 40 -156 140 -367 168 -555 73 -70 -36 -139 -94 -133
-111 3 -8 2 -12 -3 -9 -5 3 -11 -7 -14 -22 -3 -15 -21 -52 -39 -82 -29 -48
-42 -60 -102 -88 l-70 -34 -35 22 c-73 44 -177 90 -222 98 -105 20 -194 -36
-246 -155 -30 -70 -44 -78 -149 -90 -53 -6 -110 14 -121 43 -9 25 -23 15 -23
-18 l0 -31 -73 71 c-41 39 -86 74 -100 77 -42 11 -94 -3 -131 -36 l-34 -29
-26 31 c-14 17 -26 34 -26 39 0 17 -52 70 -69 70 -36 0 -91 -80 -91 -133 0
-11 -14 -36 -31 -53 -24 -24 -33 -44 -36 -81 -5 -44 -11 -53 -76 -113 -38 -35
-65 -66 -60 -67 6 -2 72 23 147 57 75 33 140 60 145 60 15 0 21 -29 21 -103
l0 -71 21 20 c13 14 22 39 26 78 5 45 9 56 21 51 22 -8 192 -129 192 -136 0
-9 -101 -50 -110 -44 -4 3 -13 27 -20 55 -7 28 -16 52 -20 55 -5 3 -14 -21
-20 -52 -6 -32 -15 -65 -19 -73 -11 -21 -41 -25 -41 -6 0 9 -4 16 -10 16 -5 0
-10 -9 -10 -20 0 -12 -12 -26 -33 -36 -46 -24 -56 -42 -57 -100 0 -42 -4 -55
-22 -67 -19 -13 -20 -16 -5 -16 11 -1 17 -9 17 -23 0 -35 -11 -45 -81 -79 -78
-38 -232 -130 -226 -135 2 -2 66 25 142 61 75 36 140 63 143 60 3 -3 -11 -37
-30 -75 l-36 -70 24 0 23 0 -21 -37 c-12 -21 -30 -49 -40 -62 -11 -15 -18 -41
-18 -71 0 -44 -3 -50 -35 -69 -35 -20 -46 -41 -22 -41 7 0 50 18 96 40 l83 40
-42 -47 c-24 -27 -48 -61 -55 -76 -8 -20 -30 -37 -76 -58 -79 -38 -215 -128
-249 -165 -14 -15 -19 -24 -11 -19 8 5 66 39 129 76 99 59 205 108 290 134
l22 6 0 -159 0 -159 -122 -8 c-245 -14 -267 -22 -66 -24 l187 -1 3 -105 3
-105 -140 -1 c-77 -1 -169 -4 -205 -8 l-65 -6 100 -8 c55 -4 163 -7 240 -7 77
0 157 -3 177 -6 35 -6 37 -8 31 -35 l-5 -29 125 0 c116 0 125 -1 130 -20 4
-17 14 -20 61 -20 38 0 56 -4 56 -12 0 -7 3 -23 6 -35 l6 -23 -253 -1 c-140 0
-274 -4 -299 -8 -25 -5 -38 -9 -30 -10 9 0 51 -5 95 -11 44 -5 168 -19 275
-30 107 -11 258 -26 335 -35 292 -30 744 -64 1550 -115 176 -11 390 -25 475
-31 175 -13 290 -10 830 26 346 23 437 32 428 40 -4 4 -367 33 -508 40 -265
13 -293 16 -277 32 12 12 83 14 473 13 252 0 456 1 453 4 -2 2 -200 10 -439
16 -239 6 -436 13 -438 14 -1 2 6 19 17 37 11 19 23 51 26 72 l7 37 100 0
c110 0 154 14 164 54 3 13 4 62 2 110 l-3 86 160 0 160 -1 -30 -27 c-17 -15
-48 -41 -70 -59 l-40 -32 245 0 245 0 -61 18 c-33 9 -82 30 -110 45 -29 17
-62 28 -80 27 -17 -1 -37 5 -44 14 -11 13 1 15 101 15 129 0 254 10 242 19 -4
3 -43 43 -87 88 -67 70 -80 89 -87 129 -6 29 -20 59 -35 75 l-27 28 48 -15
c27 -8 60 -14 74 -14 25 1 25 2 -16 38 -46 40 -123 174 -104 180 9 3 92 -18
206 -53 11 -3 -24 17 -78 44 -143 71 -137 63 -137 197 l0 112 59 -14 c32 -7
83 -22 112 -34 30 -11 58 -20 62 -20 13 0 -46 47 -92 73 -25 14 -54 44 -73 73
-17 27 -47 69 -68 94 -54 66 -54 65 3 65 58 0 72 17 30 38 -15 8 -68 47 -116
86 l-88 71 69 -6 c43 -4 72 -3 75 4 4 5 -17 28 -47 51 -29 23 -61 50 -70 60
-17 19 -17 19 2 14 11 -2 29 0 40 6 19 10 18 14 -31 61 -51 49 -52 50 -24 50
l28 0 -19 28 c-11 15 -24 44 -30 65 -9 33 -9 38 4 33 11 -4 9 4 -6 34 -11 22
-20 58 -20 80 0 37 2 40 19 31 28 -15 155 -61 158 -57 2 2 -9 11 -24 21 -15
10 -67 47 -115 83 -81 60 -88 68 -88 99 l0 35 68 -53 c37 -29 87 -69 112 -89
43 -34 86 -63 155 -105 17 -10 -9 20 -57 66 -92 90 -123 129 -134 173 -3 15
-24 48 -45 73 -27 30 -39 54 -39 74 0 69 -72 159 -127 159 -41 0 -98 -67 -113
-132 -7 -31 -24 -65 -40 -83 -15 -16 -35 -44 -43 -60 -8 -17 -25 -39 -37 -50
l-22 -20 -37 45 c-96 120 -127 132 -195 77 -23 -19 -53 -41 -67 -50 -25 -17
-26 -17 -62 23 l-36 41 35 -7 35 -6 -34 53 c-18 30 -46 78 -62 107 -16 29 -33
51 -39 49 -6 -2 -25 -32 -42 -68 -33 -67 -77 -114 -99 -106 -11 5 -80 107 -71
107 2 0 24 -11 47 -25 42 -24 89 -33 89 -17 -1 4 -38 25 -83 47 l-82 40 85 3
c47 2 88 6 93 11 4 4 -25 37 -65 73 -40 36 -84 84 -96 107 l-24 42 36 -6 c35
-7 50 5 26 20 -13 8 -59 101 -90 180 -13 33 -26 63 -29 67 -4 4 -17 -23 -30
-60z m46 -494 c-2 -24 -4 -5 -4 42 0 47 2 66 4 43 2 -24 2 -62 0 -85z m-573
-106 c36 -17 88 -52 115 -77 l50 -46 -38 -38 -37 -37 -129 14 c-172 18 -259
12 -370 -25 -90 -31 -90 -31 -96 -9 -3 11 -1 27 4 34 7 8 4 19 -8 32 -18 20
-18 21 21 61 87 90 195 131 330 126 77 -4 103 -9 158 -35z m558 -175 c3 -92 1
-107 -12 -105 -16 3 -16 6 -11 166 3 117 17 80 23 -61z m676 66 l39 -67 -51
-31 c-28 -17 -69 -43 -91 -58 l-40 -27 59 0 c45 0 76 -8 136 -35 79 -36 105
-41 128 -26 10 6 2 22 -32 64 -50 61 -53 67 -32 67 8 0 45 16 83 35 64 32 160
61 170 51 3 -3 -18 -33 -46 -68 -45 -55 -62 -88 -46 -88 3 0 32 14 65 30 l60
30 0 -42 c0 -33 -3 -39 -12 -30 -7 7 -21 12 -33 12 -31 0 -45 -19 -45 -64 0
-23 -3 -65 -7 -94 -6 -51 -8 -55 -49 -75 -60 -29 -56 -41 11 -34 l54 5 -20
-51 c-37 -93 -37 -89 12 -72 82 29 101 60 106 169 3 45 11 91 19 105 10 18 13
20 10 6 -11 -40 -23 -147 -19 -168 5 -32 -30 -82 -79 -113 -40 -25 -41 -27
-20 -35 12 -5 22 -10 22 -13 0 -3 -19 -16 -42 -30 l-41 -25 33 -8 33 -9 -96
-89 c-54 -49 -97 -93 -97 -97 0 -11 116 -10 165 2 22 5 41 7 43 5 10 -9 -43
-41 -101 -60 -34 -12 -97 -45 -139 -73 -43 -29 -83 -52 -91 -52 -8 0 -22 -9
-31 -19 -17 -19 -17 -20 11 -23 l28 -3 3 -93 c2 -73 0 -93 -10 -90 -9 3 -14
31 -16 86 -2 45 -6 82 -10 82 -11 0 -34 -17 -30 -21 1 -2 -18 -23 -43 -47
l-47 -42 -17 72 c-10 40 -40 149 -66 241 -27 93 -49 172 -49 176 0 5 41 17 92
26 124 25 147 50 114 128 -17 43 -187 268 -227 301 -17 14 -29 26 -27 26 2 0
29 -9 61 -20 92 -32 175 -22 110 14 -38 21 -63 44 -97 89 -16 21 -77 74 -135
119 -58 44 -110 84 -114 88 -4 4 27 8 70 8 l78 2 55 -59 55 -59 75 69 c41 38
83 69 92 69 10 0 32 -26 56 -67z m-1416 -136 c18 -18 68 -86 112 -149 96 -142
97 -156 5 -189 -83 -30 -102 -57 -96 -134 4 -59 4 -60 -8 -20 -12 41 -29 52
-55 35 -13 -8 -15 -53 -15 -305 0 -293 0 -296 22 -313 15 -11 23 -30 25 -57 3
-37 5 -40 36 -43 33 -3 45 14 17 24 -9 4 -15 19 -15 39 0 30 3 33 42 39 45 7
78 30 78 53 0 7 4 13 9 13 9 0 21 -71 21 -126 0 -31 -7 -38 -87 -93 -49 -32
-114 -78 -145 -100 l-58 -42 -2 472 c-3 427 -5 473 -20 482 -12 8 -73 -4 -250
-51 -128 -34 -241 -62 -251 -62 -14 0 -17 9 -17 53 0 28 -3 63 -7 77 -14 50
-32 -174 -32 -406 -1 -127 -4 -265 -7 -307 -7 -74 -8 -77 -32 -77 -69 0 -1027
-160 -1004 -168 6 -2 100 10 209 27 199 31 398 51 303 31 -104 -22 -572 -89
-588 -84 -14 5 -14 4 -3 -4 12 -9 10 -13 -12 -23 -15 -7 -29 -10 -32 -8 -2 3
-5 178 -5 389 -2 358 -1 385 16 397 26 19 342 121 629 203 618 176 817 245
500 174 -186 -42 -175 -42 -175 -3 l0 34 198 63 c108 34 287 91 397 127 110
35 214 64 232 64 24 1 41 -8 65 -32z m199 13 c248 -31 393 -57 624 -111 252
-59 271 -64 299 -83 27 -17 192 -235 206 -271 5 -14 10 -36 10 -47 0 -25 23
-28 -305 41 -132 27 -361 72 -510 101 -148 28 -280 55 -292 60 -13 5 -23 18
-23 28 0 10 -41 78 -91 152 -50 74 -93 138 -95 143 -7 10 -11 10 177 -13z
m719 5 c24 -14 24 -14 3 -15 -28 0 -53 10 -53 21 0 13 21 10 50 -6z m-1747
-20 c31 -8 90 -31 129 -52 l73 -36 -48 -16 -48 -15 -47 47 c-42 41 -72 59 -72
42 0 -3 12 -28 26 -56 14 -28 24 -52 22 -54 -7 -7 -142 -45 -159 -45 -10 0
-19 -4 -19 -10 0 -5 -19 -14 -42 -21 -24 -6 -92 -27 -153 -45 -60 -19 -119
-37 -129 -40 -15 -5 -18 -2 -13 15 3 11 2 21 -2 21 -10 0 -33 51 -27 57 3 3
18 -3 35 -13 29 -17 34 -17 126 0 59 11 95 23 95 30 0 23 59 132 84 155 20 19
83 49 106 51 3 0 31 -7 63 -15z m-697 -117 c41 -32 124 -123 124 -137 0 -21
-15 -11 -62 41 l-46 53 -13 -29 c-12 -25 -11 -30 6 -43 11 -7 41 -21 67 -31
l47 -16 -6 -51 c-3 -27 -12 -57 -20 -66 -7 -9 -13 -22 -11 -29 2 -7 -20 -20
-50 -31 l-53 -18 -8 22 c-5 12 -23 39 -40 61 -17 21 -31 40 -31 42 0 1 23 10
52 20 l52 17 -70 17 c-38 10 -81 20 -95 24 -15 3 -34 17 -43 30 -16 25 -16 25
17 20 17 -3 38 -1 46 5 11 7 10 14 -8 39 l-21 31 42 25 c53 32 85 33 124 4z
m512 -175 c-3 -24 -11 -30 -77 -50 -41 -13 -82 -25 -90 -27 -9 -2 -28 -8 -42
-14 -50 -20 -62 -19 -70 10 -7 26 -5 28 34 39 23 6 85 24 137 39 52 16 99 29
103 29 5 1 7 -11 5 -26z m1119 -121 c-10 -10 -17 -28 -17 -40 0 -37 140 -573
162 -619 11 -24 19 -45 17 -46 -20 -14 -59 -37 -64 -37 -3 0 -5 15 -5 33 0 77
-31 210 -136 579 -23 80 -25 102 -16 123 9 19 19 25 43 25 30 0 31 -1 16 -18z
m30 -34 c-3 -8 -6 -5 -6 6 -1 11 2 17 5 13 3 -3 4 -12 1 -19z m-267 -293 c-1
-157 -4 -285 -9 -285 -4 0 -12 5 -18 11 -18 18 -114 48 -132 42 -13 -5 -13 -3
-4 7 9 10 21 9 59 -4 26 -9 51 -16 56 -16 9 0 11 460 2 484 -3 9 -14 16 -23
17 -18 1 36 28 57 29 10 0 12 -60 12 -285z m277 243 c-3 -8 -6 -5 -6 6 -1 11
2 17 5 13 3 -3 4 -12 1 -19z m541 -2 c7 -8 59 -249 68 -313 l6 -53 -44 0 -44
0 -27 173 c-16 94 -31 181 -34 191 -5 17 -1 18 32 13 21 -3 40 -9 43 -11z
m-933 -5 c-6 -5 -64 -21 -130 -36 -66 -15 -128 -34 -137 -43 -16 -14 -18 -38
-18 -242 0 -175 3 -230 14 -245 13 -18 18 -18 175 6 l162 25 -3 -136 -3 -135
-92 -25 c-51 -13 -93 -28 -93 -32 0 -4 33 -8 73 -9 94 -1 121 -9 125 -37 2
-12 2 -22 0 -22 -2 -1 -75 -16 -163 -34 -172 -36 -163 -42 34 -22 l123 12 -6
-44 c-3 -25 -11 -50 -16 -57 -7 -8 -58 -15 -141 -20 -219 -12 -245 -25 -40
-20 108 3 189 9 197 16 7 6 17 33 23 60 6 27 18 61 27 74 20 31 297 235 318
235 4 0 6 -71 6 -158 l0 -159 -54 5 c-77 6 -156 -19 -195 -63 -64 -73 -110
-201 -125 -347 -4 -37 -13 -71 -19 -76 -16 -12 -359 0 -364 13 -2 6 57 9 167
7 l170 -3 0 30 c0 29 -2 30 -60 37 l-60 7 0 38 0 38 53 3 c48 3 52 5 52 28 l0
25 -143 5 c-84 3 -147 1 -153 -5 -5 -5 -9 -40 -9 -78 0 -60 -2 -68 -17 -65
-16 3 -18 18 -15 173 1 94 5 398 7 676 5 470 7 508 23 523 10 8 81 31 158 50
157 39 162 40 149 27z m851 -191 c15 -96 28 -176 29 -178 1 -1 31 -7 66 -13
35 -6 67 -14 70 -18 4 -3 10 -30 14 -59 8 -62 11 -62 -115 9 -83 47 -171 71
-184 51 -3 -5 14 -12 39 -15 44 -7 152 -54 142 -63 -2 -3 -33 0 -68 6 -35 5
-116 10 -180 10 l-117 0 -4 25 c-4 19 2 31 23 50 37 30 97 39 205 30 l85 -7
-6 24 c-6 27 -45 325 -45 342 1 42 22 -45 46 -194z m-432 110 c4 -24 3 -29 -3
-15 -4 11 -11 36 -15 55 -4 24 -3 29 3 15 4 -11 11 -36 15 -55z m-137 28 c-3
-8 -6 -5 -6 6 -1 11 2 17 5 13 3 -3 4 -12 1 -19z m-673 -24 c14 -6 16 -63 16
-545 0 -517 -1 -539 -18 -539 -18 0 -19 19 -26 339 -5 284 0 751 10 751 1 0 9
-3 18 -6z m251 -11 c-38 -8 -76 -19 -82 -25 -16 -13 -19 -414 -3 -421 6 -3 5
-4 -2 -3 -10 2 -14 52 -16 214 -2 201 -1 212 17 222 27 14 89 28 126 28 17 0
-1 -6 -40 -15z m444 -33 c0 -9 -4 -8 -9 5 -5 11 -9 27 -9 35 0 9 4 8 9 -5 5
-11 9 -27 9 -35z m1082 -42 c12 -40 22 -79 21 -88 -1 -24 59 -274 68 -284 5
-5 2 19 -6 54 -8 35 -12 65 -10 67 2 3 14 -39 26 -92 13 -52 20 -98 17 -102
-3 -3 -50 0 -105 7 -80 10 -101 16 -111 32 -7 11 -11 22 -8 24 2 2 27 0 56 -6
29 -5 57 -7 62 -5 5 3 6 25 3 48 -2 23 -9 113 -13 199 -6 106 -14 166 -24 187
-9 17 -11 31 -7 31 5 0 19 -33 31 -72z m-176 51 l70 -2 -80 -14 c-44 -8 -90
-16 -102 -19 -21 -4 -22 -11 -26 -92 -3 -83 -3 -82 -5 27 l-2 114 38 -7 c20
-3 69 -6 107 -7z m-778 -31 c-3 -8 -6 -5 -6 6 -1 11 2 17 5 13 3 -3 4 -12 1
-19z m867 -20 c8 -30 8 -195 -1 -281 l-6 -68 -31 2 c-22 2 -49 20 -93 61 -34
32 -65 58 -70 58 -8 0 -5 201 3 209 3 4 158 38 180 40 7 1 14 -9 18 -21z
m-857 -20 c-3 -8 -6 -5 -6 6 -1 11 2 17 5 13 3 -3 4 -12 1 -19z m583 -84 c10
-54 17 -100 15 -102 -5 -5 -12 24 -29 117 -18 93 -18 97 -11 89 3 -3 14 -50
25 -104z m-703 74 c-3 -8 -6 -5 -6 6 -1 11 2 17 5 13 3 -3 4 -12 1 -19z m130
-30 c-3 -8 -6 -5 -6 6 -1 11 2 17 5 13 3 -3 4 -12 1 -19z m-489 -106 c2 -72
-1 -112 -8 -112 -6 0 -10 31 -10 77 0 101 -8 90 -11 -15 -1 -45 -5 -82 -8 -82
-24 0 -31 32 -31 131 0 94 2 108 18 112 45 12 47 7 50 -111z m381 68 c0 -9 -4
-8 -9 5 -5 11 -9 27 -9 35 0 9 4 8 9 -5 5 -11 9 -27 9 -35z m118 -2 c-3 -8 -6
-5 -6 6 -1 11 2 17 5 13 3 -3 4 -12 1 -19z m-98 -68 c0 -9 -4 -8 -9 5 -5 11
-9 27 -9 35 0 9 4 8 9 -5 5 -11 9 -27 9 -35z m108 28 c-3 -8 -6 -5 -6 6 -1 11
2 17 5 13 3 -3 4 -12 1 -19z m960 -20 c-3 -8 -6 -5 -6 6 -1 11 2 17 5 13 3 -3
4 -12 1 -19z m-950 -20 c-3 -8 -6 -5 -6 6 -1 11 2 17 5 13 3 -3 4 -12 1 -19z
m972 -48 c0 -9 -4 -8 -9 5 -5 11 -9 27 -9 35 0 9 4 8 9 -5 5 -11 9 -27 9 -35z
m791 -1 l45 -14 -45 -7 c-25 -3 -62 -7 -82 -7 -38 -1 -38 -1 -38 39 l0 40 38
-19 c20 -10 57 -25 82 -32z m-1861 -9 c0 -9 -4 -8 -9 5 -5 11 -9 27 -9 35 0 9
4 8 9 -5 5 -11 9 -27 9 -35z m108 18 c-3 -8 -6 -5 -6 6 -1 11 2 17 5 13 3 -3
4 -12 1 -19z m1523 2 c-14 -10 -61 -40 -105 -67 -44 -26 -101 -67 -127 -91
l-48 -45 0 55 0 56 86 36 c81 35 187 73 209 75 6 0 -1 -8 -15 -19z m-1513 -52
c-3 -8 -6 -5 -6 6 -1 11 2 17 5 13 3 -3 4 -12 1 -19z m556 -33 c4 -34 3 -42
-3 -25 -8 25 -13 87 -6 79 2 -2 6 -26 9 -54z m-666 23 c-3 -8 -6 -5 -6 6 -1
11 2 17 5 13 3 -3 4 -12 1 -19z m763 -28 l45 -39 -32 -1 c-30 0 -63 21 -63 40
0 5 -3 15 -6 24 -10 26 8 18 56 -24z m-773 -24 c-18 -14 -136 -41 -144 -33 -2
3 22 10 54 17 32 6 67 15 78 20 29 13 33 11 12 -4z m388 -7 c144 -9 199 -16
230 -30 l40 -19 -35 5 c-51 7 -312 33 -407 40 -46 4 -83 10 -83 14 0 4 15 6
33 4 17 -1 117 -7 222 -14z m1505 -43 c0 -35 -3 -78 -6 -95 -6 -27 -10 -30
-28 -25 -49 15 -51 15 -31 -1 11 -9 29 -22 40 -29 21 -14 24 -8 -32 -84 -16
-23 -16 -23 12 -16 24 6 27 4 22 -10 -4 -10 -7 -27 -7 -39 -1 -51 -13 -51
-111 -1 -52 25 -112 52 -134 59 -35 10 -40 15 -38 40 1 15 16 45 33 66 16 21
26 40 21 43 -12 8 -103 -64 -130 -103 -21 -29 -24 -30 -90 -28 -55 2 -73 -2
-90 -17 -20 -18 -21 -18 -54 11 l-34 30 41 25 c23 14 96 53 163 86 195 99 336
150 416 151 l37 1 0 -64z m-638 -21 c-3 -38 1 -63 12 -79 15 -23 14 -25 -19
-50 -18 -14 -36 -26 -39 -26 -11 0 -46 64 -46 84 0 10 21 42 48 71 26 30 47
54 47 54 0 1 -2 -24 -3 -54z m-1522 -134 c0 -126 -4 -177 -15 -202 -13 -31
-14 -18 -15 169 0 173 2 202 15 202 13 0 15 -25 15 -169z m1122 138 l23 -20
-35 5 c-97 13 -120 18 -120 25 0 4 24 8 54 9 42 1 60 -3 78 -19z m-342 -69
c117 -10 328 -31 502 -51 108 -12 101 -9 252 -134 89 -73 95 -80 70 -83 -14
-2 -182 6 -372 18 l-346 22 -41 42 c-22 24 -76 67 -120 96 -98 64 -84 47 32
-40 48 -36 89 -71 91 -77 3 -10 -15 -13 -65 -13 -63 0 -72 3 -104 31 -39 35
-225 169 -234 169 -16 0 14 -25 103 -89 54 -38 104 -76 111 -85 12 -14 9 -18
-18 -27 -19 -7 -36 -22 -42 -36 -10 -27 -13 -322 -3 -347 5 -14 55 -16 454
-16 394 0 449 2 461 16 11 13 14 12 24 -13 7 -15 10 -31 8 -35 -2 -5 -239 -8
-526 -8 l-522 0 -40 78 c-22 42 -59 96 -83 119 l-44 43 4 174 c3 197 -3 183
92 231 43 22 63 25 145 25 53 0 148 -5 211 -10z m-1340 -330 l0 -200 -60 0
-60 0 0 146 c0 80 5 165 11 190 12 45 15 47 79 57 14 3 26 5 28 6 1 0 2 -89 2
-199z m-437 183 c-7 -2 -21 -2 -30 0 -10 3 -4 5 12 5 17 0 24 -2 18 -5z m297
-193 l0 -190 -209 0 -208 0 -6 30 c-7 33 -16 35 -101 24 -42 -6 -48 -10 -53
-35 -3 -16 -13 -30 -22 -33 -9 -3 -91 -8 -184 -12 l-167 -6 0 135 0 135 53 7
c28 4 131 20 226 37 194 33 613 96 649 97 l22 1 0 -190z m2656 117 c30 -16 93
-71 164 -142 63 -64 153 -151 200 -193 l85 -77 -345 3 c-190 1 -350 4 -356 6
-7 3 -9 52 -6 158 5 168 -2 197 -52 235 l-24 18 66 12 c102 18 208 10 268 -20z
m-1296 -197 c0 -163 -1 -170 -20 -170 -19 0 -20 7 -20 163 0 90 3 167 7 170 3
4 12 7 20 7 10 0 13 -35 13 -170z m194 150 c10 -10 26 -284 18 -307 -3 -9 -30
-13 -88 -13 l-84 0 0 171 0 172 72 -7 c40 -4 77 -11 82 -16z m393 -15 c153 -9
282 -20 287 -25 11 -11 -9 -219 -25 -254 l-12 -26 -224 0 c-139 0 -232 4 -244
11 -11 5 -25 22 -30 37 -23 60 -69 246 -65 259 6 16 -20 16 313 -2z m-2917
-141 c0 -112 -2 -134 -15 -134 -13 0 -15 21 -15 133 0 74 3 137 6 140 18 18
24 -16 24 -139z m3318 118 c10 -7 11 -40 6 -151 -4 -78 -10 -143 -13 -145 -3
-2 -24 -1 -46 3 l-40 5 40 6 c34 4 40 9 43 32 3 22 -2 29 -22 34 -14 3 -33 4
-41 0 -9 -3 -15 0 -15 9 0 9 13 15 38 17 l37 3 6 65 c8 84 4 93 -37 88 -30 -4
-34 -1 -34 19 0 19 5 23 33 23 17 0 38 -4 45 -8z m-18 -88 c0 -25 -22 -32 -50
-14 -12 7 -12 12 4 29 22 24 46 17 46 -15z m-1341 -54 c49 -14 97 -64 138
-144 40 -80 27 -84 -25 -6 -25 38 -51 62 -82 78 -70 35 -168 26 -218 -20 -52
-49 -101 -188 -102 -288 0 -47 -18 -94 -21 -55 -10 141 37 304 110 387 43 50
126 69 200 48z m1331 -10 c0 -11 -22 -18 -37 -12 -24 8 -14 29 12 24 14 -2 25
-8 25 -12z m-2810 -50 c0 -11 -4 -20 -10 -20 -5 0 -10 9 -10 20 0 11 5 20 10
20 6 0 10 -9 10 -20z m50 1 c0 -14 -6 -19 -20 -18 -12 1 -20 8 -20 19 0 11 7
18 20 18 13 0 20 -7 20 -19z m-90 -6 c0 -8 -7 -15 -15 -15 -8 0 -15 7 -15 15
0 8 7 15 15 15 8 0 15 -7 15 -15z m141 -66 c29 -20 36 -21 274 -14 l245 8 0
-128 0 -128 -122 6 c-66 4 -178 7 -248 7 l-128 0 -16 66 c-30 118 -52 144
-123 144 -66 0 -113 -68 -113 -163 0 -25 -5 -40 -15 -44 -19 -7 -340 26 -373
38 -22 8 -23 13 -20 86 l3 78 200 10 c180 9 204 13 235 33 49 31 159 32 201 1z
m589 -134 c0 -118 -1 -125 -20 -125 -19 0 -20 7 -20 125 0 118 1 125 20 125
19 0 20 -7 20 -125z m793 55 c58 -50 82 -119 82 -230 -1 -79 -4 -102 -24 -139
-33 -64 -67 -91 -111 -91 -49 0 -82 27 -109 91 -60 139 -21 344 73 385 44 19
51 18 89 -16z m1367 20 c0 -5 -20 -10 -45 -10 -25 0 -45 5 -45 10 0 6 20 10
45 10 25 0 45 -4 45 -10z m48 -131 c2 -53 -1 -79 -10 -86 -12 -9 -278 -21
-918 -39 -240 -7 -233 -11 -238 105 -4 77 -3 81 19 90 15 6 250 9 584 8 l560
-2 3 -76z m-2868 61 c18 -10 40 -59 40 -89 -1 -14 -3 -13 -14 2 -12 16 -18 17
-36 7 -18 -10 -21 -9 -18 2 3 7 14 14 26 16 27 4 28 18 3 32 -75 39 -114 -125
-57 -238 22 -44 31 -52 55 -52 37 0 50 17 72 93 15 52 18 56 18 29 1 -53 -36
-128 -70 -143 -27 -10 -32 -9 -54 11 -76 71 -81 286 -8 329 22 13 21 13 43 1z
m-2 -173 c12 2 22 -2 22 -8 0 -5 5 -7 11 -4 6 4 7 19 4 37 -5 21 -4 28 4 24
18 -11 13 -78 -9 -114 -17 -27 -23 -31 -39 -22 -28 14 -44 72 -35 123 l8 42 6
-40 c4 -34 8 -40 28 -38z m1047 33 c8 -13 -185 -13 -205 0 -10 7 19 10 92 10
61 0 109 -4 113 -10z m-642 -76 c26 -22 38 -25 73 -21 24 2 55 14 70 26 15 12
41 21 60 21 29 0 36 -5 49 -37 9 -21 25 -48 37 -60 l21 -22 -139 5 c-130 4
-264 13 -264 17 2 19 31 81 41 88 19 12 17 12 52 -17z m712 -34 l103 0 10 -40
10 -41 -131 6 c-73 4 -142 8 -155 11 l-23 5 27 35 c17 21 33 33 41 29 8 -3 61
-5 118 -5z m678 -30 c5 -19 14 -20 130 -20 73 0 127 4 129 10 2 5 17 12 33 15
28 6 31 3 56 -50 15 -34 21 -54 13 -51 -7 3 -110 8 -229 12 -119 4 -218 10
-220 14 -3 4 3 26 12 49 13 34 21 41 43 41 19 0 29 -6 33 -20z"/>
<path d="M2265 3231 c-27 -10 -50 -23 -49 -29 4 -50 -5 -48 97 -21 34 9 38 13
35 37 -4 33 -19 36 -83 13z"/>
<path d="M1645 3159 l-140 -60 80 5 80 5 -70 -34 c-38 -19 -68 -34 -64 -35 17
-1 263 91 270 101 4 7 5 18 3 24 -3 7 2 15 10 18 25 10 19 37 -6 36 -13 0 -86
-28 -163 -60z"/>
<path d="M1467 2976 c-87 -24 -163 -48 -170 -55 -8 -8 -13 -67 -15 -182 -3
-146 -1 -174 13 -196 14 -21 23 -24 48 -20 293 51 322 57 340 78 15 18 17 45
17 201 0 104 -4 187 -10 199 -15 27 -42 24 -223 -25z m130 -22 c-3 -3 -12 -4
-19 -1 -8 3 -5 6 6 6 11 1 17 -2 13 -5z m-76 -20 c-25 -8 -61 -16 -80 -19 -20
-2 -7 4 29 14 75 22 117 26 51 5z m-74 -246 c-1 -40 -3 -10 -3 67 0 77 1 110
3 73 2 -37 2 -100 0 -140z"/>
<path d="M1215 2980 c-84 -6 -137 -16 -226 -43 -202 -63 -226 -74 -238 -109
-14 -40 -15 -454 -1 -463 6 -4 10 34 11 107 1 169 9 310 20 330 5 10 35 25 67
34 75 21 484 143 497 149 6 2 3 3 -5 3 -8 -1 -64 -4 -125 -8z"/>
<path d="M1163 2883 c-32 -6 -43 -25 -50 -82 -7 -63 6 -83 50 -74 41 7 57 28
57 74 0 41 -15 90 -27 88 -5 -1 -18 -4 -30 -6z"/>
<path d="M895 2804 c-27 -9 -56 -23 -62 -32 -15 -19 -18 -328 -4 -351 7 -10
23 -13 64 -8 101 10 97 2 97 205 0 217 1 215 -95 186z m62 -310 c-2 -2 -25 -8
-50 -13 l-47 -8 0 128 0 128 48 14 47 14 3 -130 c1 -71 1 -131 -1 -133z"/>
<path d="M1788 2493 c-13 -3 -18 -15 -18 -39 0 -29 3 -34 24 -34 44 0 56 10
56 46 0 35 -12 40 -62 27z"/>
<path d="M808 2213 c7 -3 16 -2 19 1 4 3 -2 6 -13 5 -11 0 -14 -3 -6 -6z"/>
<path d="M2660 3576 c0 -16 32 -46 48 -46 16 0 15 25 0 37 -24 18 -48 23 -48
9z"/>
<path d="M3040 3451 c0 -14 60 -85 83 -99 27 -15 429 -80 451 -72 14 5 14 9
-4 37 -10 18 -29 39 -42 47 -24 15 -135 40 -342 76 -133 23 -146 24 -146 11z
m295 -76 c107 -20 144 -31 158 -47 10 -12 16 -22 14 -24 -3 -3 -293 40 -344
51 -12 3 -31 18 -42 33 l-20 29 47 -8 c26 -4 110 -19 187 -34z"/>
<path d="M3600 3391 c0 -11 39 -41 52 -41 16 0 7 30 -11 40 -24 13 -41 13 -41
1z"/>
<path d="M2921 3296 c13 -13 770 -161 874 -171 92 -9 47 11 -92 41 -379 82
-806 153 -782 130z"/>
<path d="M2122 2392 c-39 -4 -55 -34 -43 -79 7 -25 12 -28 42 -25 44 5 59 18
59 51 0 39 -19 57 -58 53z"/>
<path d="M3401 2365 c3 -2 86 -14 184 -26 196 -23 253 -39 175 -50 -25 -3 -34
-7 -20 -8 14 0 50 -4 80 -7 l55 -7 -25 28 c-14 15 -33 31 -43 37 -26 13 -418
46 -406 33z"/>
<path d="M2850 2207 c0 -39 14 -49 48 -36 18 7 23 15 20 36 -2 23 -8 29 -35
31 -32 3 -33 2 -33 -31z"/>
<path d="M2918 2044 c-15 -32 0 -59 32 -59 13 0 28 8 33 17 15 23 -6 68 -33
68 -12 0 -25 -10 -32 -26z"/>
<path d="M970 2139 c-31 -5 -60 -17 -67 -26 -8 -10 -13 -48 -13 -93 0 -104 6
-109 102 -103 50 4 79 10 82 19 4 10 -12 12 -81 7 -71 -5 -85 -4 -81 8 3 10
28 15 83 19 48 3 80 10 82 17 3 9 -17 11 -83 6 -72 -5 -86 -4 -82 8 3 9 22 15
54 17 74 3 114 12 114 23 0 7 -28 8 -85 4 -54 -5 -85 -4 -85 3 0 11 57 22 123
22 36 0 47 4 47 16 0 17 -1 17 -134 -3 -30 -5 -38 -3 -34 8 3 9 31 17 87 23
50 6 80 13 78 20 -5 15 -40 16 -107 5z"/>
<path d="M1613 1964 c-7 -19 20 -49 36 -40 6 4 11 18 11 32 0 17 -5 24 -20 24
-11 0 -23 -7 -27 -16z"/>
<path d="M4390 1999 c-7 -13 -35 -45 -64 -71 l-51 -47 135 -1 135 0 -52 35
c-29 19 -63 35 -75 35 -21 1 -21 2 -7 13 15 11 15 16 4 37 l-12 23 -13 -24z"/>
<path d="M3183 2153 c-9 -3 -13 -32 -13 -94 0 -85 1 -89 24 -95 13 -3 38 -4
57 -2 l34 3 3 88 c2 64 -1 88 -10 91 -27 9 -84 14 -95 9z m83 -38 c4 -8 3 -27
0 -41 -6 -21 -11 -25 -39 -22 -25 2 -33 8 -35 26 -2 13 -1 30 2 38 7 19 65 18
72 -1z m-6 -110 c0 -10 -11 -15 -35 -15 -24 0 -35 5 -35 15 0 10 11 15 35 15
24 0 35 -5 35 -15z"/>
<path d="M3170 1900 l0 -30 60 0 60 0 0 30 0 30 -60 0 -60 0 0 -30z"/>
<path d="M3422 2118 c3 -25 2 -25 386 -42 137 -5 142 -5 142 14 0 11 -6 20
-14 20 -27 0 -372 20 -444 25 -72 6 -73 6 -70 -17z"/>
<path d="M3437 2042 c4 -16 17 -20 71 -26 37 -3 86 -6 110 -6 23 0 42 -4 42
-10 0 -6 -42 -10 -105 -10 -98 0 -123 -7 -92 -27 11 -7 203 -24 272 -23 82 0
209 16 212 26 4 12 -49 24 -112 24 -28 0 -46 -6 -58 -20 -17 -20 -52 -26 -73
-12 -6 4 -17 18 -24 32 -12 23 -12 24 3 11 14 -11 20 -11 32 -1 10 8 15 9 15
2 0 -6 7 -9 15 -6 10 4 15 0 15 -11 0 -9 5 -13 10 -10 6 3 10 14 10 25 0 12 6
17 18 15 9 -2 47 -6 85 -9 61 -5 67 -4 67 14 0 10 -3 21 -7 23 -5 3 -121 8
-260 12 -246 7 -251 6 -246 -13z m312 -6 c-2 -2 -20 -6 -39 -10 -25 -4 -31 -3
-20 4 14 9 69 15 59 6z"/>
<path d="M3715 1980 c3 -5 14 -10 23 -10 15 0 15 2 2 10 -20 13 -33 13 -25 0z"/>
<path d="M3480 1913 c0 -27 43 -33 243 -33 181 0 206 2 211 16 4 9 5 18 4 20
-2 1 -106 4 -231 6 -173 2 -227 0 -227 -9z"/>
<path d="M2631 1744 c-37 -31 -61 -104 -61 -184 0 -153 95 -245 179 -175 38
33 55 83 55 170 1 85 -23 154 -65 190 -39 32 -69 32 -108 -1z m103 -65 c31
-37 33 -49 6 -56 -11 -3 -21 -10 -21 -17 -9 -81 3 -121 26 -89 18 24 29 11 21
-23 -8 -32 -58 -84 -81 -84 -25 0 -62 43 -74 86 -15 54 -14 98 4 141 33 79 75
94 119 42z m36 -99 c0 -35 -17 -40 -29 -7 -8 20 -2 28 27 36 1 1 2 -12 2 -29z"/>
<path d="M2660 1670 c-9 -6 -10 -10 -3 -10 6 0 15 5 18 10 8 12 4 12 -15 0z"/>
<path d="M2692 1668 c5 -15 28 -23 28 -10 0 5 -7 13 -16 16 -10 4 -14 1 -12
-6z"/>
<path d="M2659 1601 c-12 -40 1 -88 22 -76 13 9 11 35 -3 35 -6 0 -4 6 6 13
13 9 16 20 11 40 -10 38 -22 34 -36 -12z"/>
<path d="M2620 1621 c0 -6 5 -13 10 -16 6 -3 10 1 10 9 0 9 -4 16 -10 16 -5 0
-10 -4 -10 -9z"/>
<path d="M2622 1555 c0 -16 2 -22 5 -12 2 9 2 23 0 30 -3 6 -5 -1 -5 -18z"/>
<path d="M2646 1513 c-3 -3 -6 -16 -6 -27 0 -12 4 -16 8 -11 4 6 19 10 35 10
15 0 27 5 27 10 0 6 -8 10 -18 10 -9 0 -22 3 -28 7 -6 4 -14 5 -18 1z"/>
<path d="M2710 1470 c0 -5 5 -10 10 -10 6 0 10 5 10 10 0 6 -4 10 -10 10 -5 0
-10 -4 -10 -10z"/>
<path d="M3554 1696 c-3 -8 -4 -29 -2 -48 3 -32 5 -33 46 -33 23 1 105 2 182
3 l140 2 0 45 0 45 -180 0 c-146 0 -182 -3 -186 -14z m259 -43 c-46 -2 -120
-2 -165 0 -46 1 -9 3 82 3 91 0 128 -2 83 -3z"/>
<path d="M1280 1509 c0 -11 27 -12 34 -1 2 4 -4 9 -15 9 -10 1 -19 -2 -19 -8z"/>
<path d="M1095 3987 c-84 -33 -87 -57 -4 -33 100 30 207 15 269 -38 l28 -23
-41 4 c-41 4 -87 -12 -94 -32 -2 -6 41 -9 119 -8 136 2 216 -8 283 -37 55 -24
59 -12 7 18 -48 27 -143 52 -197 52 -35 0 -48 7 -86 43 -25 23 -63 48 -86 55
-50 15 -158 14 -198 -1z"/>
<path d="M3945 3970 c45 -11 87 -11 80 0 -3 6 -30 9 -58 9 -45 -1 -48 -2 -22
-9z"/>
<path d="M675 3929 c-37 -10 -74 -44 -115 -104 -17 -25 -39 -45 -48 -45 -36 0
-172 -93 -158 -107 2 -3 30 10 61 28 39 22 76 34 117 38 l60 6 3 39 c2 32 10
47 43 78 37 34 47 38 93 38 59 0 111 -22 134 -56 14 -22 14 -27 0 -46 -23 -33
-19 -38 28 -38 33 1 38 3 25 11 -53 30 12 89 99 89 64 0 115 -36 111 -79 l-3
-26 90 -5 c50 -3 92 -4 94 -3 10 6 -71 33 -101 33 -27 0 -36 6 -48 33 -24 51
-72 77 -144 77 -35 0 -73 -7 -90 -15 -28 -15 -31 -14 -55 9 -51 49 -125 66
-196 45z"/>
<path d="M3780 3910 c-19 -12 256 -12 285 0 12 5 -35 9 -125 9 -80 0 -152 -4
-160 -9z"/>
<path d="M967 3653 c51 -2 135 -2 185 0 51 1 10 3 -92 3 -102 0 -143 -2 -93
-3z"/>
<path d="M4443 1613 c82 -2 212 -2 290 0 78 1 12 3 -148 3 -159 0 -223 -2
-142 -3z"/>
<path d="M4160 1423 c0 -28 28 -33 180 -32 85 0 173 3 195 8 l40 7 -55 7
c-108 12 -360 20 -360 10z"/>
</g>
</svg>