<svg xmlns="http://www.w3.org/2000/svg">
  <defs>
    <symbol id="logo" fill="none">
      <path fill="#475467" d="M135.393 7.187h-3.608a.99.99 0 0 0-.235-.575 1.316 1.316 0 0 0-.532-.37 1.814 1.814 0 0 0-.711-.134c-.336 0-.625.061-.866.185-.242.123-.36.298-.355.525-.005.161.064.31.206.448.146.137.428.243.845.32l2.216.397c1.117.204 1.948.547 2.493 1.03.549.478.826 1.12.831 1.924-.005.777-.237 1.452-.696 2.025-.455.568-1.078 1.008-1.868 1.32-.786.308-1.684.462-2.692.462-1.667 0-2.971-.34-3.913-1.022-.938-.682-1.461-1.582-1.57-2.7h3.892c.052.346.223.614.511.803.294.185.663.277 1.108.277.36 0 .656-.061.888-.184.237-.123.358-.299.362-.526-.004-.208-.109-.374-.312-.497-.199-.123-.512-.223-.938-.298l-1.931-.341c-1.113-.194-1.946-.564-2.5-1.108-.554-.545-.829-1.246-.824-2.103-.005-.757.194-1.399.596-1.924.407-.53.987-.933 1.74-1.208.758-.28 1.655-.419 2.692-.419 1.577 0 2.82.327 3.729.98.914.654 1.394 1.558 1.442 2.713Zm-18.978 4.773.028-4.659h.512l2.642-3.665H124l-4.432 5.71h-1.108l-2.045 2.614Zm-3.523 2.585V0h3.921v14.546h-3.921Zm6.733 0-2.5-4.318 2.557-2.784 4.432 7.103h-4.489Zm-14.006.199c-1.184 0-2.197-.234-3.04-.703a4.835 4.835 0 0 1-1.939-1.974c-.45-.848-.675-1.83-.675-2.948 0-1.117.225-2.097.675-2.94a4.78 4.78 0 0 1 1.939-1.975c.843-.473 1.856-.71 3.04-.71 1.07 0 1.996.194 2.777.583.786.383 1.394.928 1.825 1.633.431.7.649 1.525.654 2.472h-3.637c-.052-.573-.218-1.009-.497-1.307-.275-.303-.63-.455-1.065-.455-.341 0-.64.1-.895.299-.256.194-.455.49-.597.887-.142.393-.213.888-.213 1.485 0 .596.071 1.094.213 1.491.142.393.341.69.597.888.255.194.554.291.895.291.288 0 .544-.066.767-.199.222-.137.402-.336.539-.596.143-.265.228-.587.256-.966h3.637c-.015.961-.235 1.8-.661 2.514-.426.71-1.03 1.26-1.811 1.648-.777.388-1.705.582-2.784.582Zm-11.57-4.971V3.636h3.92v10.91h-3.721v-2.074h-.114a3.1 3.1 0 0 1-1.243 1.633c-.592.388-1.295.582-2.11.582-.762 0-1.43-.175-2.002-.525a3.604 3.604 0 0 1-1.328-1.449c-.313-.615-.471-1.321-.476-2.116v-6.96h3.92v6.136c.005.54.142.963.412 1.271.275.308.658.462 1.15.462.328 0 .61-.069.846-.206.242-.142.426-.341.554-.597.133-.26.197-.57.192-.93Zm-16.146 4.772V3.636h3.807V5.71h.113c.2-.767.514-1.328.945-1.683a2.344 2.344 0 0 1 1.527-.533c.17 0 .339.014.504.043.17.024.334.06.49.106V6.99a3.512 3.512 0 0 0-.717-.15 6.45 6.45 0 0 0-.731-.05c-.384 0-.73.088-1.037.264-.303.17-.543.411-.718.724-.175.308-.263.67-.263 1.087v5.681h-3.92ZM64.45 3.182V0h12.643v3.182h-4.375v11.364h-3.892V3.181H64.45Z"/>
      <path fill="#101828" d="M62.508 0v14.546h-3.92V0h3.92ZM51.247 14.744c-1.165 0-2.169-.222-3.012-.667a4.677 4.677 0 0 1-1.939-1.932c-.45-.843-.674-1.851-.674-3.026 0-1.127.227-2.111.681-2.954a4.872 4.872 0 0 1 1.925-1.968c.829-.468 1.807-.703 2.933-.703.824 0 1.57.128 2.238.384a4.687 4.687 0 0 1 1.711 1.115 4.91 4.91 0 0 1 1.094 1.761c.256.691.384 1.47.384 2.337V10h-9.745V7.84h6.137a1.504 1.504 0 0 0-.242-.823 1.539 1.539 0 0 0-.618-.561 1.817 1.817 0 0 0-.873-.206 1.87 1.87 0 0 0-.874.206 1.65 1.65 0 0 0-.64.554 1.577 1.577 0 0 0-.248.83v2.33c0 .35.074.663.22.938a1.6 1.6 0 0 0 .633.646c.274.157.606.235.994.235.27 0 .516-.038.739-.114a1.66 1.66 0 0 0 .582-.327c.16-.146.28-.322.355-.525h3.58a4.078 4.078 0 0 1-.874 1.974c-.46.554-1.068.985-1.825 1.293-.753.303-1.634.454-2.642.454ZM44.836 3.636l-3.664 10.91h-4.546l-3.665-10.91h4.12l1.761 7.216h.114l1.761-7.216h4.12Zm-19.78 11.08c-.696 0-1.312-.114-1.847-.341a2.776 2.776 0 0 1-1.25-1.051c-.303-.469-.454-1.066-.454-1.79 0-.597.102-1.106.305-1.527a2.75 2.75 0 0 1 .853-1.044c.364-.27.788-.476 1.27-.618a7.708 7.708 0 0 1 1.578-.277 15.5 15.5 0 0 0 1.47-.17c.374-.071.644-.168.81-.292a.606.606 0 0 0 .248-.504v-.028c0-.284-.109-.502-.327-.654-.218-.151-.497-.227-.838-.227-.374 0-.68.083-.916.249-.232.16-.372.41-.419.745h-3.608a3.719 3.719 0 0 1 .632-1.832c.379-.563.93-1.013 1.655-1.35.724-.34 1.629-.51 2.713-.51.781 0 1.482.092 2.102.276.62.18 1.148.433 1.584.76.436.322.767.701.994 1.137.232.43.348.9.348 1.406v7.471h-3.664v-1.534h-.086a3.146 3.146 0 0 1-.795.988c-.308.25-.66.433-1.058.546a4.67 4.67 0 0 1-1.3.17Zm1.278-2.472c.299 0 .578-.061.838-.184.266-.123.481-.301.647-.533.166-.232.248-.514.248-.845v-.91a4.542 4.542 0 0 1-.333.121 6.764 6.764 0 0 1-.781.199 9.72 9.72 0 0 1-.448.078 2.232 2.232 0 0 0-.746.235c-.19.104-.331.234-.426.39a.982.982 0 0 0-.135.512c0 .303.107.535.32.696.213.16.485.241.816.241Zm-12.882 2.301V3.636h3.807V5.71h.114c.198-.767.513-1.328.944-1.683a2.344 2.344 0 0 1 1.527-.533c.17 0 .339.014.505.043.17.024.333.06.49.106V6.99a3.512 3.512 0 0 0-.718-.15 6.448 6.448 0 0 0-.731-.05c-.384 0-.73.088-1.037.264-.303.17-.542.411-.718.724-.175.308-.262.67-.262 1.087v5.681h-3.92ZM0 3.182V0h12.642v3.182H8.267v11.364H4.375V3.181H0Z"/>
    </symbol>
    <symbol id="heart" fill="none">
      <path fill="#101828" d="m12 9.854-1.341-2.683c-.333-.665-.91-1.62-1.728-2.393C8.127 4.018 7.164 3.5 6 3.5c-2.514 0-4.5 1.989-4.5 4.38 0 1.817.831 3.099 2.802 5.055a86.725 86.725 0 0 0 1.719 1.64c1.662 1.56 3.729 3.5 5.979 6.096 2.25-2.595 4.317-4.537 5.979-6.096a86.92 86.92 0 0 0 1.719-1.64C21.669 10.979 22.5 9.696 22.5 7.88c0-2.391-1.986-4.38-4.5-4.38-1.166 0-2.127.518-2.931 1.278-.818.773-1.395 1.728-1.728 2.393L12 9.854Zm.588 12.438a.77.77 0 0 1-1.176 0c-2.402-2.853-4.575-4.893-6.365-6.572C1.95 12.813 0 10.983 0 7.88 0 4.633 2.685 2 6 2c2.4 0 4.079 1.575 5.106 3.012.39.548.687 1.074.894 1.488a11.5 11.5 0 0 1 .894-1.488C13.921 3.574 15.6 2 18 2c3.315 0 6 2.633 6 5.88 0 3.103-1.95 4.932-5.047 7.84-1.79 1.68-3.963 3.722-6.365 6.572Z"/>
    </symbol>
    <symbol id="heart-pressed" fill="none" viewBox="0 0 24 24">
      <path fill="#E44848" d="m12 9.854-1.341-2.683c-.333-.665-.91-1.62-1.728-2.393C8.127 4.018 7.164 3.5 6 3.5c-2.514 0-4.5 1.989-4.5 4.38 0 1.817.831 3.099 2.802 5.055a86.725 86.725 0 0 0 1.719 1.64c1.662 1.56 3.729 3.5 5.979 6.096 2.25-2.595 4.317-4.537 5.979-6.096a86.92 86.92 0 0 0 1.719-1.64C21.669 10.979 22.5 9.696 22.5 7.88c0-2.391-1.986-4.38-4.5-4.38-1.166 0-2.127.518-2.931 1.278-.818.773-1.395 1.728-1.728 2.393L12 9.854Zm.588 12.438a.77.77 0 0 1-1.176 0c-2.402-2.853-4.575-4.893-6.365-6.572C1.95 12.813 0 10.983 0 7.88 0 4.633 2.685 2 6 2c2.4 0 4.079 1.575 5.106 3.012.39.548.687 1.074.894 1.488a11.5 11.5 0 0 1 .894-1.488C13.921 3.574 15.6 2 18 2c3.315 0 6 2.633 6 5.88 0 3.103-1.95 4.932-5.047 7.84-1.79 1.68-3.963 3.722-6.365 6.572Z"/>
    </symbol>
    <symbol id="gold-star" fill="none">
      <g clip-path="url(#a)">
        <path fill="#FFC531" d="M7.558.838a.5.5 0 0 1 .884 0l1.889 3.579a.5.5 0 0 0 .356.26l3.988.69a.5.5 0 0 1 .273.84l-2.82 2.902a.5.5 0 0 0-.137.42l.576 4.005a.5.5 0 0 1-.715.52L8.22 12.268a.5.5 0 0 0-.442 0l-3.63 1.786a.5.5 0 0 1-.716-.52l.576-4.005a.5.5 0 0 0-.137-.42l-2.82-2.902a.5.5 0 0 1 .273-.84l3.988-.69a.5.5 0 0 0 .357-.26L7.558.838Z"/>
      </g>
      <defs>
        <clipPath id="a">
          <path fill="#fff" d="M0 0h16v16H0z"/>
        </clipPath>
      </defs>
    </symbol>
    <symbol id="transmission" fill="none" viewBox="0 0 20 20">
      <path fill="#101828" fill-rule="evenodd" d="M7.5 4.375A1.875 1.875 0 0 1 9.375 2.5h1.25A1.875 1.875 0 0 1 12.5 4.375v1.25A1.875 1.875 0 0 1 10.625 7.5v1.25H17.5a.625.625 0 0 1 .625.625v1.25a.624.624 0 1 1-1.25 0V10h-6.25v.625a.624.624 0 1 1-1.25 0V10h-6.25v.625a.625.625 0 1 1-1.25 0v-1.25A.625.625 0 0 1 2.5 8.75h6.875V7.5A1.875 1.875 0 0 1 7.5 5.625v-1.25Zm3.125 1.875a.625.625 0 0 0 .625-.625v-1.25a.625.625 0 0 0-.625-.625h-1.25a.625.625 0 0 0-.625.625v1.25a.625.625 0 0 0 .625.625h1.25ZM0 14.375A1.875 1.875 0 0 1 1.875 12.5h1.25A1.875 1.875 0 0 1 5 14.375v1.25A1.875 1.875 0 0 1 3.125 17.5h-1.25A1.875 1.875 0 0 1 0 15.625v-1.25Zm1.875-.625a.625.625 0 0 0-.625.625v1.25a.625.625 0 0 0 .625.625h1.25a.625.625 0 0 0 .625-.625v-1.25a.625.625 0 0 0-.625-.625h-1.25Zm5.625.625A1.875 1.875 0 0 1 9.375 12.5h1.25a1.875 1.875 0 0 1 1.875 1.875v1.25a1.875 1.875 0 0 1-1.875 1.875h-1.25A1.875 1.875 0 0 1 7.5 15.625v-1.25Zm1.875-.625a.625.625 0 0 0-.625.625v1.25a.625.625 0 0 0 .625.625h1.25a.624.624 0 0 0 .625-.625v-1.25a.624.624 0 0 0-.625-.625h-1.25Zm5.625.625a1.875 1.875 0 0 1 1.875-1.875h1.25A1.875 1.875 0 0 1 20 14.375v1.25a1.875 1.875 0 0 1-1.875 1.875h-1.25A1.875 1.875 0 0 1 15 15.625v-1.25Zm1.875-.625a.624.624 0 0 0-.625.625v1.25a.624.624 0 0 0 .625.625h1.25a.624.624 0 0 0 .625-.625v-1.25a.624.624 0 0 0-.625-.625h-1.25Z" clip-rule="evenodd"/>
    </symbol>
    <symbol id="AC" fill="none" viewBox="0 0 20 20">
      <g clip-path="url(#clip0_12068_447)">
        <path fill="#101828" d="M15.625 2.5A3.125 3.125 0 0 0 12.5 5.625a.625.625 0 1 1-1.25 0A4.375 4.375 0 1 1 15.625 10h-15a.625.625 0 0 1 0-1.25h15a3.125 3.125 0 1 0 0-6.25Zm-8.75 1.25A1.25 1.25 0 0 0 5.625 5a.625.625 0 0 1-1.25 0 2.5 2.5 0 1 1 2.5 2.5H.625a.625.625 0 0 1 0-1.25h6.25a1.25 1.25 0 1 0 0-2.5ZM0 11.875a.625.625 0 0 1 .625-.625h12.553A3.75 3.75 0 1 1 9.428 15a.625.625 0 1 1 1.25 0 2.5 2.5 0 1 0 2.5-2.5H.624A.625.625 0 0 1 0 11.875Z"/>
      </g>
      <defs>
        <clipPath id="clip0_12068_447">
          <path fill="#fff" d="M0 0h20v20H0z"/>
        </clipPath>
      </defs>
    </symbol>
    <symbol id="engine" fill="none" viewBox="0 0 20 20">
      <path fill="#101828" d="M3.75 3.125a.625.625 0 0 1 .625-.625h6.25a.625.625 0 0 1 .625.625v6.25a.625.625 0 0 1-.625.625h-6.25a.625.625 0 0 1-.625-.625v-6.25Z"/>
      <path fill="#101828" d="M1.25 2.5A2.5 2.5 0 0 1 3.75 0h7.5a2.5 2.5 0 0 1 2.5 2.5v10a2.5 2.5 0 0 1 2.5 2.5v.625a.624.624 0 1 0 1.25 0V10h-.625a.625.625 0 0 1-.625-.625V5.469a.625.625 0 0 1 .625-.625h1.869c-.014-.595-.067-1.118-.252-1.528A1.212 1.212 0 0 0 18 2.744c-.23-.138-.58-.244-1.125-.244a.625.625 0 1 1 0-1.25c.705-.002 1.293.138 1.765.42.479.285.793.689.992 1.134.37.819.368 1.831.368 2.601v3.969a.625.625 0 0 1-.625.626h-.625v5.625a1.875 1.875 0 1 1-3.75 0V15a1.25 1.25 0 0 0-1.25-1.25v5h.625a.624.624 0 1 1 0 1.25H.625a.625.625 0 1 1 0-1.25h.625V2.5Zm11.25 0a1.25 1.25 0 0 0-1.25-1.25h-7.5A1.25 1.25 0 0 0 2.5 2.5v16.25h10V2.5Z"/>
    </symbol>
    <symbol id="kitchen" fill="none" viewBox="0 0 20 20">
      <path fill="#101828" fill-rule="evenodd" d="M.625 7.5a.625.625 0 0 0-.61.76l2.065 9.292A3.125 3.125 0 0 0 5.13 20h7.24a3.125 3.125 0 0 0 3.05-2.448l.164-.737a3.75 3.75 0 0 0 1.625-7.318l.276-1.237a.624.624 0 0 0-.61-.76H.625Zm15.625 8.125a2.5 2.5 0 0 1-.395-.031l1.084-4.873a2.502 2.502 0 0 1-.689 4.904ZM3.3 17.281 1.404 8.75h14.692L14.2 17.281a1.875 1.875 0 0 1-1.83 1.469H5.13a1.875 1.875 0 0 1-1.83-1.469Z" clip-rule="evenodd"/>
      <path fill="#101828" d="m5.5 1-.004.005-.017.024a5 5 0 0 0-.255.387 2.5 2.5 0 0 0-.176.334c-.033.075-.043.115-.047.129v.005a.75.75 0 0 0 .114.31c.094.166.223.34.385.556l.013.015c.147.198.325.434.462.679.14.25.275.569.275.931 0 .235-.081.46-.149.618-.072.167-.156.33-.252.485a6.247 6.247 0 0 1-.317.477l-.022.031-.006.01L5.5 6A.625.625 0 1 1 4.5 5.25l.004-.005.017-.024c.091-.125.176-.254.255-.387a2.5 2.5 0 0 0 .176-.334c.033-.075.043-.115.047-.129a.75.75 0 0 0-.113-.315A5.001 5.001 0 0 0 4.5 3.5l-.013-.015a6.25 6.25 0 0 1-.462-.679 1.913 1.913 0 0 1-.275-.93c0-.236.081-.46.149-.618.074-.173.167-.343.252-.485a7.5 7.5 0 0 1 .317-.478l.03-.044A.625.625 0 0 1 5.5 1Zm3.75 0-.004.005-.017.024a5 5 0 0 0-.255.387 2.5 2.5 0 0 0-.177.334c-.032.075-.042.115-.046.129v.005a.75.75 0 0 0 .114.31c.094.166.223.34.385.556l.012.015c.148.198.325.434.463.679.14.25.275.569.275.931 0 .235-.081.46-.149.618-.072.167-.156.33-.252.485a6.247 6.247 0 0 1-.316.477l-.023.031-.006.01L9.25 6A.625.625 0 1 1 8.25 5.25l.004-.005.017-.024c.091-.125.176-.254.255-.387a2.5 2.5 0 0 0 .177-.334c.032-.075.042-.115.046-.129a.75.75 0 0 0-.113-.315A5.001 5.001 0 0 0 8.25 3.5l-.012-.015a6.25 6.25 0 0 1-.463-.679 1.913 1.913 0 0 1-.275-.93c0-.236.081-.46.149-.618.074-.173.167-.343.252-.485a7.5 7.5 0 0 1 .316-.478L8.25.251A.625.625 0 0 1 9.25 1ZM13 1l-.004.005-.017.024a4.968 4.968 0 0 0-.255.387 2.503 2.503 0 0 0-.177.334c-.032.075-.042.115-.046.129v.005a.75.75 0 0 0 .114.31c.094.166.223.34.385.556l.012.015c.148.198.325.434.463.679.14.25.275.569.275.931 0 .235-.081.46-.149.618a3.75 3.75 0 0 1-.252.485 6.272 6.272 0 0 1-.315.477l-.024.031-.006.01L13 6A.625.625 0 0 1 12 5.25l.004-.005.017-.024c.091-.125.176-.254.255-.387.067-.107.126-.218.177-.334.032-.075.042-.115.046-.129a.75.75 0 0 0-.113-.315A5.007 5.007 0 0 0 12 3.5l-.012-.015a6.244 6.244 0 0 1-.463-.679 1.912 1.912 0 0 1-.275-.93c0-.236.081-.46.149-.618a4.19 4.19 0 0 1 .252-.485c.1-.164.205-.323.316-.478L12 .251A.625.625 0 0 1 13 1Z"/>
    </symbol>
    <symbol id="radio" fill="none" viewBox="0 0 20 20">
      <g clip-path="url(#clip0_12071_579)">
        <path fill="#101828" d="M8.75 3.125a.625.625 0 0 1 .625-.625h8.75a.625.625 0 0 1 .625.625v1.25a.625.625 0 0 1-.625.625h-8.75a.625.625 0 0 1-.625-.625v-1.25ZM0 15a3.75 3.75 0 1 1 7.5 0A3.75 3.75 0 0 1 0 15Zm8.75-1.875a.625.625 0 0 1 .625-.625h8.75a.624.624 0 0 1 .625.625v1.25a.624.624 0 0 1-.625.625h-8.75a.625.625 0 0 1-.625-.625v-1.25Zm0-6.25a.625.625 0 0 1 .625-.625h6.25a.625.625 0 1 1 0 1.25h-6.25a.625.625 0 0 1-.625-.625Zm0 10a.625.625 0 0 1 .625-.625h6.25a.624.624 0 1 1 0 1.25h-6.25a.625.625 0 0 1-.625-.625Zm-5-15.625a3.75 3.75 0 1 0 0 7.5 3.75 3.75 0 0 0 0-7.5Zm0 5.625a1.875 1.875 0 1 1 0-3.75 1.875 1.875 0 0 1 0 3.75Z"/>
      </g>
      <defs>
        <clipPath id="clip0_12071_579">
          <path fill="#fff" d="M0 0h20v20H0z"/>
        </clipPath>
      </defs>
    </symbol>
    <symbol id="bathroom" fill="none" viewBox="0 0 20 20">
      <path fill="#101828" d="M5 18.438a.937.937 0 1 1-1.874 0 .937.937 0 0 1 1.874 0ZM6.563 15a.938.938 0 1 0 0 1.875.938.938 0 0 0 0-1.875Zm-5 0a.938.938 0 1 0 0 1.875.938.938 0 0 0 0-1.875Zm2.5-2.5a.938.938 0 1 0 0 1.875.938.938 0 0 0 0-1.875ZM20 3.125a.625.625 0 0 1-.625.625h-2.241l-2.176 2.177-1.692 9.905a1.25 1.25 0 0 1-2.117.677L3.493 8.852a1.25 1.25 0 0 1 .679-2.117l9.901-1.693 2.36-2.36a.625.625 0 0 1 .442-.182h2.5a.625.625 0 0 1 .625.625ZM13.61 6.39 4.375 7.969l7.656 7.656 1.58-9.235Z"/>
    </symbol>
    <symbol id="refrigerator" fill="none" viewBox="0 0 20 20">
      <path fill="#101828" d="M14.792 5.833a.625.625 0 0 0-1.25 0V7.5a.625.625 0 1 0 1.25 0V5.833Zm0 5.834a.625.625 0 0 0-1.25 0v1.666a.625.625 0 1 0 1.25 0v-1.666Z"/>
      <path fill="#101828" fill-rule="evenodd" d="M10.047 1.042h-.094c-1.531 0-2.745 0-3.694.127-.976.132-1.767.409-2.391 1.032-.624.624-.9 1.415-1.032 2.392-.128.95-.128 2.162-.128 3.694v2.593c0 1.532 0 2.745.128 3.694.132.977.408 1.768 1.032 2.392.383.382.828.634 1.34.802v.565c0 .345.28.625.625.625h.834a.625.625 0 0 0 .625-.625v-.246c.756.038 1.637.038 2.661.038h.094c1.025 0 1.905 0 2.661-.038v.246c0 .345.28.625.625.625h.834a.625.625 0 0 0 .625-.625v-.565c.512-.168.958-.42 1.34-.802.624-.624.9-1.415 1.032-2.392.128-.95.128-2.162.128-3.694V8.288c0-1.532 0-2.745-.128-3.695-.132-.976-.408-1.767-1.032-2.391-.624-.624-1.415-.9-2.391-1.032-.95-.127-2.163-.127-3.694-.127M4.752 3.085c.352-.352.836-.564 1.674-.677.857-.115 1.985-.116 3.574-.116 1.59 0 2.718.001 3.575.116.838.113 1.32.325 1.673.677.353.353.565.836.677 1.674.115.857.117 1.985.117 3.574v.625H3.958v-.625c0-1.589.002-2.717.117-3.575.113-.837.324-1.32.677-1.673Zm-.794 7.123h12.084v.625c0 1.59-.002 2.719-.117 3.575-.113.838-.324 1.321-.677 1.674-.352.352-.835.564-1.674.676-.857.115-1.985.117-3.574.117-1.59 0-2.717-.002-3.575-.117-.837-.112-1.32-.324-1.673-.676-.353-.353-.564-.836-.677-1.675-.115-.855-.117-1.985-.117-3.574v-.625Z" clip-rule="evenodd"/>
    </symbol>
    <symbol id="microwave" fill="none" viewBox="0 0 20 20">
      <path stroke="#101828" stroke-linecap="round" stroke-linejoin="round" stroke-width="1.25" d="M16.667 3.333H3.333c-.92 0-1.666.747-1.666 1.667v9.167c0 .92.746 1.666 1.666 1.666h13.334c.92 0 1.666-.746 1.666-1.666V5c0-.92-.746-1.667-1.666-1.667Z"/>
      <path stroke="#101828" stroke-linecap="round" stroke-linejoin="round" stroke-width="1.25" d="M10.833 6.667h-5A.833.833 0 0 0 5 7.5v4.167c0 .46.373.833.833.833h5c.46 0 .834-.373.834-.833V7.5a.833.833 0 0 0-.834-.833ZM15 6.667V12.5M5 15.833V17.5m10-1.667V17.5"/>
    </symbol>
    <symbol id="gas" fill="none" viewBox="0 0 20 20">
      <g stroke="#101828" stroke-linecap="round" stroke-linejoin="round" stroke-width="1.5" clip-path="url(#clip0_19697_518)">
        <path d="M5 15.833h3.333m6.667.008v-.008M1.667 5c0-2.758.575-3.333 3.333-3.333h10c2.758 0 3.333.575 3.333 3.333v10c0 2.758-.575 3.333-3.333 3.333H5c-2.758 0-3.333-.575-3.333-3.333V5Z"/>
        <path d="M10 11.667A3.333 3.333 0 1 0 10 5a3.333 3.333 0 0 0 0 6.667ZM12.917 8.333h1.25M10 11.25v1.25M7.083 8.333h-1.25M10 5.417v-1.25"/>
      </g>
      <defs>
        <clipPath id="clip0_19697_518">
          <path fill="#fff" d="M0 0h20v20H0z"/>
        </clipPath>
      </defs>
    </symbol>
    <symbol id="water" fill="none" viewBox="0 0 20 20">
      <path stroke="#101828" stroke-miterlimit="10" stroke-width="1.25" d="M15.625 12.5c0 3.452-2.173 5.625-5.625 5.625S4.375 15.952 4.375 12.5c0-3.704 4.032-8.705 5.27-10.152a.469.469 0 0 1 .711 0c1.237 1.447 5.269 6.448 5.269 10.152Z"/>
      <path stroke="#101828" stroke-linecap="round" stroke-linejoin="round" stroke-width="1.25" d="M13.438 12.813a2.812 2.812 0 0 1-2.813 2.812"/>
    </symbol>
  </defs>
</svg>
